<svg width="52" height="40" viewBox="0 0 52 40" fill="none" xmlns="http://www.w3.org/2000/svg">
<path d="M7.27737 5.75258C4.92154 5.75262 2.11111 5.12291 1.00037 4.80805L1 37.5857C5.55552 39.0857 8.00454 38.6645 9.4761 38.5108C13.4106 37.967 15.8665 34.6506 21.5071 34.8031C24.0981 34.8731 25.3614 36.3124 25.9998 36.0857V2.80814C24.7554 2.00815 22.3702 1.84516 21.3332 1.86366C17.1666 1.80811 15.3888 3.64143 12.8333 4.80805C10.7888 5.74134 8.27748 5.82661 7.27737 5.75258Z" stroke="#4A4848" stroke-width="2"/>
<path d="M44.7226 5.75258C47.0785 5.75262 49.8889 5.12291 50.9996 4.80805L51 37.5857C46.4445 39.0857 43.9955 38.6645 42.5239 38.5108C38.5894 37.967 36.1335 34.6506 30.4929 34.8031C27.9019 34.8731 26.5714 36.2634 26.0002 36.0857V2.80814C27.2446 2.00815 29.6298 1.84516 30.6668 1.86366C34.8334 1.80811 36.6112 3.64143 39.1667 4.80805C41.2112 5.74134 43.7225 5.82661 44.7226 5.75258Z" stroke="#4A4848" stroke-width="2"/>
<circle cx="38.6013" cy="13.2837" r="2.86012" fill="#4A4848"/>
<path d="M36.7299 20.0191V19.5923H40.4371V28.5323V29.0066H36.7299V28.5323V20.0191Z" fill="#4A4848" stroke="#4A4848" stroke-width="2"/>
</svg>
