<svg id="Layer_1" data-name="Layer 1" xmlns="http://www.w3.org/2000/svg" viewBox="0 0 25 25"><defs><style>.cls-1{fill:#fff;}</style></defs><path class="cls-1" d="M21.8,4.49H3.2A1.2,1.2,0,0,0,2,5.69V19.31a1.2,1.2,0,0,0,1.2,1.2H21.8a1.2,1.2,0,0,0,1.2-1.2V5.69A1.2,1.2,0,0,0,21.8,4.49Zm-.5,1a.26.26,0,0,1,.25.18.24.24,0,0,1-.07.28l-8.82,5.8a.27.27,0,0,1-.32,0L3.54,6a.25.25,0,0,1-.09-.3.26.26,0,0,1,.25-.18Zm.5,14H3.2a.2.2,0,0,1-.2-.2V6.81l8.75,5.75a1.28,1.28,0,0,0,.76.25,1.16,1.16,0,0,0,.72-.24L22,6.81v12.5A.2.2,0,0,1,21.8,19.51Z"/></svg>