<svg id="Layer_1" data-name="Layer 1" xmlns="http://www.w3.org/2000/svg" viewBox="0 0 25 25"><defs><style>.cls-1{fill:#fff;}</style></defs><g id="noun_contact_373688" data-name="noun contact 373688"><path class="cls-1" d="M18.94,21.78h-.32a10.7,10.7,0,0,1-4-1.17A21.08,21.08,0,0,1,7.51,15,19.16,19.16,0,0,1,4,9.18,7.55,7.55,0,0,1,3.44,6a2.78,2.78,0,0,1,.83-1.79L5.88,2.58A1.77,1.77,0,0,1,7,2.07a1.57,1.57,0,0,1,1.17.54c.25.22.51.49.8.78l1.78,1.78a1.56,1.56,0,0,1,.54,1.1,1.68,1.68,0,0,1-.56,1.18L10,8.14c-.3.3-.58.6-.9.87A.4.4,0,0,0,9,9.46l0,0a10.06,10.06,0,0,0,1.45,2.36,17.11,17.11,0,0,0,4.07,3.71,5.29,5.29,0,0,0,.52.29l.39.2h.07l.1.09a.67.67,0,0,0,.19.05.36.36,0,0,0,.25-.13l1.65-1.66a1.53,1.53,0,0,1,1.11-.51,1.69,1.69,0,0,1,1.13.52L22.54,17a1.52,1.52,0,0,1,.15,2.14.77.77,0,0,1-.18.18,5.29,5.29,0,0,1-.58.58l-.21.21c-.22.22-.44.44-.65.68A2.89,2.89,0,0,1,18.94,21.78ZM7,3.07a.74.74,0,0,0-.4.21L5,4.9A1.79,1.79,0,0,0,4.44,6,6.49,6.49,0,0,0,5,8.81a18.09,18.09,0,0,0,3.32,5.55,20.37,20.37,0,0,0,6.84,5.35,10,10,0,0,0,3.56,1.07h.18a1.81,1.81,0,0,0,1.47-.61c.22-.25.46-.49.7-.72l.22-.22a5.7,5.7,0,0,0,.55-.55l.06-.06.08-.08a.54.54,0,0,0-.07-.76l-2.64-2.64a.67.67,0,0,0-.44-.22.61.61,0,0,0-.35.19l-1.64,1.64a1.3,1.3,0,0,1-1,.47,1.58,1.58,0,0,1-.54-.12h-.1L15,17a3.17,3.17,0,0,0-.41-.21L14,16.43A18.34,18.34,0,0,1,9.68,12.5,11.48,11.48,0,0,1,8.13,10l-.08-.08V9.78a1.41,1.41,0,0,1,.38-1.49c.33-.29.6-.56.88-.85L10,6.72a.67.67,0,0,0,.24-.46.63.63,0,0,0-.21-.35L8.27,4.13C8,3.82,7.7,3.56,7.42,3.3A.6.6,0,0,0,7,3.07Z"/></g></svg>