<svg id="Layer_1" data-name="Layer 1" xmlns="http://www.w3.org/2000/svg" viewBox="0 0 25 25"><defs><style>.cls-1,.cls-2,.cls-3,.cls-4{fill:none;stroke:#fff;stroke-miterlimit:10;}.cls-1,.cls-4{stroke-linecap:round;}.cls-1,.cls-2{fill-rule:evenodd;}</style></defs><path class="cls-1" d="M15.29,4.72h2.48a.66.66,0,0,1,.62.68V21.82a.65.65,0,0,1-.62.68H4.38a.65.65,0,0,1-.62-.68V5.4a.66.66,0,0,1,.62-.68H6.73"/><path class="cls-2" d="M13.41,3.38h-.78a1.82,1.82,0,0,0-3.11,0H8.74a.58.58,0,0,0-.55.6V5.05a.58.58,0,0,0,.55.6h4.67a.57.57,0,0,0,.55-.6V4A.57.57,0,0,0,13.41,3.38Z"/><rect class="cls-3" x="5.76" y="13.01" width="2.12" height="2.26" rx="0.7"/><line class="cls-4" x1="10.11" y1="9.51" x2="16.44" y2="9.51"/><line class="cls-4" x1="10.11" y1="14.14" x2="16.44" y2="14.14"/><line class="cls-4" x1="10.11" y1="18.77" x2="16.44" y2="18.77"/><rect class="cls-3" x="5.76" y="17.64" width="2.12" height="2.26" rx="0.7"/><line class="cls-4" x1="5.75" y1="9.51" x2="6.46" y2="10.22"/><line class="cls-4" x1="7.88" y1="8.8" x2="6.46" y2="10.22"/><path class="cls-4" d="M19.85,19.59V8.25A.22.22,0,0,1,20.07,8h1.11a.22.22,0,0,1,.22.22V19.59"/><line class="cls-4" x1="19.85" y1="18.51" x2="21.4" y2="18.51"/><path class="cls-4" d="M21.4,19.59,20.77,21a.22.22,0,0,1-.3,0l-.62-1.4"/></svg>