<svg  viewBox="0 0 100% 100%" fill="none" xmlns="http://www.w3.org/2000/svg">
    <g clip-path="url(#clip0_533_111)">
        
        <path d="M10.9141 39H8.90625L4.30469 33.8203L3.14844 35.0547V39H1.60156V27.3672H3.14844V33.4375L8.79688 27.3672H10.6719L5.47656 32.8359L10.9141 39ZM19.9766 34.6406C19.9766 36.0625 19.612 37.1849 18.8828 38.0078C18.1536 38.8307 17.1771 39.2422 15.9531 39.2422C14.7188 39.2422 13.737 38.8307 13.0078 38.0078C12.2839 37.1849 11.9219 36.0625 11.9219 34.6406C11.9219 33.2188 12.2839 32.0964 13.0078 31.2734C13.737 30.4453 14.7188 30.0312 15.9531 30.0312C17.1771 30.0312 18.1536 30.4453 18.8828 31.2734C19.612 32.0964 19.9766 33.2188 19.9766 34.6406ZM18.4609 34.6406C18.4609 33.5104 18.2396 32.6719 17.7969 32.125C17.3542 31.5729 16.7396 31.2969 15.9531 31.2969C15.1562 31.2969 14.5365 31.5729 14.0938 32.125C13.6562 32.6719 13.4375 33.5104 13.4375 34.6406C13.4375 35.7344 13.6589 36.5651 14.1016 37.1328C14.5443 37.6953 15.1615 37.9766 15.9531 37.9766C16.7344 37.9766 17.3464 37.6979 17.7891 37.1406C18.237 36.5781 18.4609 35.7448 18.4609 34.6406ZM34.9922 39H33.5234V34.0312C33.5234 33.6562 33.5052 33.2943 33.4688 32.9453C33.4375 32.5964 33.3672 32.3177 33.2578 32.1094C33.138 31.8854 32.9661 31.7161 32.7422 31.6016C32.5182 31.487 32.1953 31.4297 31.7734 31.4297C31.362 31.4297 30.9505 31.5339 30.5391 31.7422C30.1276 31.9453 29.7161 32.2057 29.3047 32.5234C29.3203 32.6432 29.3333 32.7839 29.3438 32.9453C29.3542 33.1016 29.3594 33.2578 29.3594 33.4141V39H27.8906V34.0312C27.8906 33.6458 27.8724 33.2812 27.8359 32.9375C27.8047 32.5885 27.7344 32.3099 27.625 32.1016C27.5052 31.8776 27.3333 31.7109 27.1094 31.6016C26.8854 31.487 26.5625 31.4297 26.1406 31.4297C25.7396 31.4297 25.3359 31.5286 24.9297 31.7266C24.5286 31.9245 24.1276 32.1771 23.7266 32.4844V39H22.2578V30.2734H23.7266V31.2422C24.1849 30.862 24.6406 30.5651 25.0938 30.3516C25.5521 30.138 26.0391 30.0312 26.5547 30.0312C27.1484 30.0312 27.651 30.1562 28.0625 30.4062C28.4792 30.6562 28.7891 31.0026 28.9922 31.4453C29.5859 30.9453 30.1276 30.5859 30.6172 30.3672C31.1068 30.1432 31.6302 30.0312 32.1875 30.0312C33.1458 30.0312 33.8516 30.3229 34.3047 30.9062C34.763 31.4844 34.9922 32.2943 34.9922 33.3359V39ZM50.5547 39H49.0859V34.0312C49.0859 33.6562 49.0677 33.2943 49.0312 32.9453C49 32.5964 48.9297 32.3177 48.8203 32.1094C48.7005 31.8854 48.5286 31.7161 48.3047 31.6016C48.0807 31.487 47.7578 31.4297 47.3359 31.4297C46.9245 31.4297 46.513 31.5339 46.1016 31.7422C45.6901 31.9453 45.2786 32.2057 44.8672 32.5234C44.8828 32.6432 44.8958 32.7839 44.9062 32.9453C44.9167 33.1016 44.9219 33.2578 44.9219 33.4141V39H43.4531V34.0312C43.4531 33.6458 43.4349 33.2812 43.3984 32.9375C43.3672 32.5885 43.2969 32.3099 43.1875 32.1016C43.0677 31.8776 42.8958 31.7109 42.6719 31.6016C42.4479 31.487 42.125 31.4297 41.7031 31.4297C41.3021 31.4297 40.8984 31.5286 40.4922 31.7266C40.0911 31.9245 39.6901 32.1771 39.2891 32.4844V39H37.8203V30.2734H39.2891V31.2422C39.7474 30.862 40.2031 30.5651 40.6562 30.3516C41.1146 30.138 41.6016 30.0312 42.1172 30.0312C42.7109 30.0312 43.2135 30.1562 43.625 30.4062C44.0417 30.6562 44.3516 31.0026 44.5547 31.4453C45.1484 30.9453 45.6901 30.5859 46.1797 30.3672C46.6693 30.1432 47.1927 30.0312 47.75 30.0312C48.7083 30.0312 49.4141 30.3229 49.8672 30.9062C50.3255 31.4844 50.5547 32.2943 50.5547 33.3359V39ZM60.6172 39H59.1484V38.0312C58.6536 38.4219 58.1797 38.7214 57.7266 38.9297C57.2734 39.138 56.7734 39.2422 56.2266 39.2422C55.3099 39.2422 54.5964 38.9635 54.0859 38.4062C53.5755 37.8438 53.3203 37.0208 53.3203 35.9375V30.2734H54.7891V35.2422C54.7891 35.6849 54.8099 36.0651 54.8516 36.3828C54.8932 36.6953 54.9818 36.9635 55.1172 37.1875C55.2578 37.4167 55.4401 37.5833 55.6641 37.6875C55.888 37.7917 56.2135 37.8438 56.6406 37.8438C57.0208 37.8438 57.4349 37.7448 57.8828 37.5469C58.3359 37.349 58.7578 37.0964 59.1484 36.7891V30.2734H60.6172V39ZM70.8047 39H69.3359V34.0312C69.3359 33.6302 69.3125 33.2552 69.2656 32.9062C69.2188 32.5521 69.1328 32.276 69.0078 32.0781C68.8776 31.8594 68.6901 31.6979 68.4453 31.5938C68.2005 31.4844 67.8828 31.4297 67.4922 31.4297C67.0911 31.4297 66.6719 31.5286 66.2344 31.7266C65.7969 31.9245 65.3776 32.1771 64.9766 32.4844V39H63.5078V30.2734H64.9766V31.2422C65.4349 30.862 65.9089 30.5651 66.3984 30.3516C66.888 30.138 67.3906 30.0312 67.9062 30.0312C68.849 30.0312 69.5677 30.3151 70.0625 30.8828C70.5573 31.4505 70.8047 32.2682 70.8047 33.3359V39ZM75.2109 28.8125H73.5547V27.2891H75.2109V28.8125ZM75.1172 39H73.6484V30.2734H75.1172V39ZM85.9453 39H84.0078L80.5078 35.1797L79.5547 36.0859V39H78.0859V26.8438H79.5547V34.6406L83.7969 30.2734H85.6484L81.5938 34.3047L85.9453 39ZM94.2734 39H92.8125V38.0703C92.6823 38.1589 92.5052 38.2839 92.2812 38.4453C92.0625 38.6016 91.849 38.7266 91.6406 38.8203C91.3958 38.9401 91.1146 39.0391 90.7969 39.1172C90.4792 39.2005 90.1068 39.2422 89.6797 39.2422C88.8932 39.2422 88.2266 38.9818 87.6797 38.4609C87.1328 37.9401 86.8594 37.276 86.8594 36.4688C86.8594 35.8073 87 35.2734 87.2812 34.8672C87.5677 34.4557 87.974 34.1328 88.5 33.8984C89.0312 33.6641 89.6693 33.5052 90.4141 33.4219C91.1589 33.3385 91.9583 33.276 92.8125 33.2344V33.0078C92.8125 32.6745 92.7526 32.3984 92.6328 32.1797C92.5182 31.9609 92.3516 31.7891 92.1328 31.6641C91.9245 31.5443 91.6745 31.4635 91.3828 31.4219C91.0911 31.3802 90.7865 31.3594 90.4688 31.3594C90.0833 31.3594 89.6536 31.4115 89.1797 31.5156C88.7057 31.6146 88.2161 31.7604 87.7109 31.9531H87.6328V30.4609C87.9193 30.3828 88.3333 30.2969 88.875 30.2031C89.4167 30.1094 89.9505 30.0625 90.4766 30.0625C91.0911 30.0625 91.625 30.1146 92.0781 30.2188C92.5365 30.3177 92.9323 30.4896 93.2656 30.7344C93.5938 30.974 93.8438 31.2839 94.0156 31.6641C94.1875 32.0443 94.2734 32.5156 94.2734 33.0781V39ZM92.8125 36.8516V34.4219C92.3646 34.4479 91.8359 34.487 91.2266 34.5391C90.6224 34.5911 90.1432 34.6667 89.7891 34.7656C89.3672 34.8854 89.026 35.0729 88.7656 35.3281C88.5052 35.5781 88.375 35.9245 88.375 36.3672C88.375 36.8672 88.526 37.2448 88.8281 37.5C89.1302 37.75 89.5911 37.875 90.2109 37.875C90.7266 37.875 91.1979 37.776 91.625 37.5781C92.0521 37.375 92.4479 37.1328 92.8125 36.8516ZM101.633 38.9219C101.357 38.9948 101.055 39.0547 100.727 39.1016C100.404 39.1484 100.115 39.1719 99.8594 39.1719C98.9688 39.1719 98.2917 38.9323 97.8281 38.4531C97.3646 37.974 97.1328 37.2057 97.1328 36.1484V31.5078H96.1406V30.2734H97.1328V27.7656H98.6016V30.2734H101.633V31.5078H98.6016V35.4844C98.6016 35.9427 98.612 36.3021 98.6328 36.5625C98.6536 36.8177 98.7266 37.0573 98.8516 37.2812C98.9661 37.4896 99.1224 37.6432 99.3203 37.7422C99.5234 37.8359 99.8307 37.8828 100.242 37.8828C100.482 37.8828 100.732 37.849 100.992 37.7812C101.253 37.7083 101.44 37.6484 101.555 37.6016H101.633V38.9219ZM104.992 28.8125H103.336V27.2891H104.992V28.8125ZM104.898 39H103.43V30.2734H104.898V39ZM115.242 34.6406C115.242 36.0625 114.878 37.1849 114.148 38.0078C113.419 38.8307 112.443 39.2422 111.219 39.2422C109.984 39.2422 109.003 38.8307 108.273 38.0078C107.549 37.1849 107.188 36.0625 107.188 34.6406C107.188 33.2188 107.549 32.0964 108.273 31.2734C109.003 30.4453 109.984 30.0312 111.219 30.0312C112.443 30.0312 113.419 30.4453 114.148 31.2734C114.878 32.0964 115.242 33.2188 115.242 34.6406ZM113.727 34.6406C113.727 33.5104 113.505 32.6719 113.062 32.125C112.62 31.5729 112.005 31.2969 111.219 31.2969C110.422 31.2969 109.802 31.5729 109.359 32.125C108.922 32.6719 108.703 33.5104 108.703 34.6406C108.703 35.7344 108.924 36.5651 109.367 37.1328C109.81 37.6953 110.427 37.9766 111.219 37.9766C112 37.9766 112.612 37.6979 113.055 37.1406C113.503 36.5781 113.727 35.7448 113.727 34.6406ZM124.82 39H123.352V34.0312C123.352 33.6302 123.328 33.2552 123.281 32.9062C123.234 32.5521 123.148 32.276 123.023 32.0781C122.893 31.8594 122.706 31.6979 122.461 31.5938C122.216 31.4844 121.898 31.4297 121.508 31.4297C121.107 31.4297 120.688 31.5286 120.25 31.7266C119.812 31.9245 119.393 32.1771 118.992 32.4844V39H117.523V30.2734H118.992V31.2422C119.451 30.862 119.924 30.5651 120.414 30.3516C120.904 30.138 121.406 30.0312 121.922 30.0312C122.865 30.0312 123.583 30.3151 124.078 30.8828C124.573 31.4505 124.82 32.2682 124.82 33.3359V39ZM140.711 34.6406C140.711 36.0625 140.346 37.1849 139.617 38.0078C138.888 38.8307 137.911 39.2422 136.688 39.2422C135.453 39.2422 134.471 38.8307 133.742 38.0078C133.018 37.1849 132.656 36.0625 132.656 34.6406C132.656 33.2188 133.018 32.0964 133.742 31.2734C134.471 30.4453 135.453 30.0312 136.688 30.0312C137.911 30.0312 138.888 30.4453 139.617 31.2734C140.346 32.0964 140.711 33.2188 140.711 34.6406ZM139.195 34.6406C139.195 33.5104 138.974 32.6719 138.531 32.125C138.089 31.5729 137.474 31.2969 136.688 31.2969C135.891 31.2969 135.271 31.5729 134.828 32.125C134.391 32.6719 134.172 33.5104 134.172 34.6406C134.172 35.7344 134.393 36.5651 134.836 37.1328C135.279 37.6953 135.896 37.9766 136.688 37.9766C137.469 37.9766 138.081 37.6979 138.523 37.1406C138.971 36.5781 139.195 35.7448 139.195 34.6406ZM150.07 38.0078C150.07 39.487 149.734 40.5729 149.062 41.2656C148.391 41.9583 147.357 42.3047 145.961 42.3047C145.497 42.3047 145.044 42.2708 144.602 42.2031C144.164 42.1406 143.732 42.0495 143.305 41.9297V40.4297H143.383C143.622 40.5234 144.003 40.638 144.523 40.7734C145.044 40.9141 145.565 40.9844 146.086 40.9844C146.586 40.9844 147 40.9245 147.328 40.8047C147.656 40.6849 147.911 40.5182 148.094 40.3047C148.276 40.1016 148.406 39.8568 148.484 39.5703C148.562 39.2839 148.602 38.9635 148.602 38.6094V37.8125C148.159 38.1667 147.734 38.4323 147.328 38.6094C146.927 38.7812 146.414 38.8672 145.789 38.8672C144.747 38.8672 143.919 38.4922 143.305 37.7422C142.695 36.987 142.391 35.9245 142.391 34.5547C142.391 33.8047 142.495 33.1589 142.703 32.6172C142.917 32.0703 143.206 31.599 143.57 31.2031C143.909 30.8333 144.32 30.5469 144.805 30.3438C145.289 30.1354 145.771 30.0312 146.25 30.0312C146.755 30.0312 147.177 30.0833 147.516 30.1875C147.859 30.2865 148.221 30.4401 148.602 30.6484L148.695 30.2734H150.07V38.0078ZM148.602 36.6016V31.8438C148.211 31.6667 147.846 31.5417 147.508 31.4688C147.174 31.3906 146.841 31.3516 146.508 31.3516C145.701 31.3516 145.065 31.6224 144.602 32.1641C144.138 32.7057 143.906 33.4922 143.906 34.5234C143.906 35.5026 144.078 36.2448 144.422 36.75C144.766 37.2552 145.336 37.5078 146.133 37.5078C146.56 37.5078 146.987 37.4271 147.414 37.2656C147.846 37.099 148.242 36.8776 148.602 36.6016ZM171.32 39H169.852V34.0312C169.852 33.6562 169.833 33.2943 169.797 32.9453C169.766 32.5964 169.695 32.3177 169.586 32.1094C169.466 31.8854 169.294 31.7161 169.07 31.6016C168.846 31.487 168.523 31.4297 168.102 31.4297C167.69 31.4297 167.279 31.5339 166.867 31.7422C166.456 31.9453 166.044 32.2057 165.633 32.5234C165.648 32.6432 165.661 32.7839 165.672 32.9453C165.682 33.1016 165.688 33.2578 165.688 33.4141V39H164.219V34.0312C164.219 33.6458 164.201 33.2812 164.164 32.9375C164.133 32.5885 164.062 32.3099 163.953 32.1016C163.833 31.8776 163.661 31.7109 163.438 31.6016C163.214 31.487 162.891 31.4297 162.469 31.4297C162.068 31.4297 161.664 31.5286 161.258 31.7266C160.857 31.9245 160.456 32.1771 160.055 32.4844V39H158.586V30.2734H160.055V31.2422C160.513 30.862 160.969 30.5651 161.422 30.3516C161.88 30.138 162.367 30.0312 162.883 30.0312C163.477 30.0312 163.979 30.1562 164.391 30.4062C164.807 30.6562 165.117 31.0026 165.32 31.4453C165.914 30.9453 166.456 30.5859 166.945 30.3672C167.435 30.1432 167.958 30.0312 168.516 30.0312C169.474 30.0312 170.18 30.3229 170.633 30.9062C171.091 31.4844 171.32 32.2943 171.32 33.3359V39ZM181.586 34.6406C181.586 36.0625 181.221 37.1849 180.492 38.0078C179.763 38.8307 178.786 39.2422 177.562 39.2422C176.328 39.2422 175.346 38.8307 174.617 38.0078C173.893 37.1849 173.531 36.0625 173.531 34.6406C173.531 33.2188 173.893 32.0964 174.617 31.2734C175.346 30.4453 176.328 30.0312 177.562 30.0312C178.786 30.0312 179.763 30.4453 180.492 31.2734C181.221 32.0964 181.586 33.2188 181.586 34.6406ZM180.07 34.6406C180.07 33.5104 179.849 32.6719 179.406 32.125C178.964 31.5729 178.349 31.2969 177.562 31.2969C176.766 31.2969 176.146 31.5729 175.703 32.125C175.266 32.6719 175.047 33.5104 175.047 34.6406C175.047 35.7344 175.268 36.5651 175.711 37.1328C176.154 37.6953 176.771 37.9766 177.562 37.9766C178.344 37.9766 178.956 37.6979 179.398 37.1406C179.846 36.5781 180.07 35.7448 180.07 34.6406ZM191.164 39H189.695V34.0312C189.695 33.6302 189.672 33.2552 189.625 32.9062C189.578 32.5521 189.492 32.276 189.367 32.0781C189.237 31.8594 189.049 31.6979 188.805 31.5938C188.56 31.4844 188.242 31.4297 187.852 31.4297C187.451 31.4297 187.031 31.5286 186.594 31.7266C186.156 31.9245 185.737 32.1771 185.336 32.4844V39H183.867V30.2734H185.336V31.2422C185.794 30.862 186.268 30.5651 186.758 30.3516C187.247 30.138 187.75 30.0312 188.266 30.0312C189.208 30.0312 189.927 30.3151 190.422 30.8828C190.917 31.4505 191.164 32.2682 191.164 33.3359V39ZM195.57 28.8125H193.914V27.2891H195.57V28.8125ZM195.477 39H194.008V30.2734H195.477V39ZM202.914 38.9219C202.638 38.9948 202.336 39.0547 202.008 39.1016C201.685 39.1484 201.396 39.1719 201.141 39.1719C200.25 39.1719 199.573 38.9323 199.109 38.4531C198.646 37.974 198.414 37.2057 198.414 36.1484V31.5078H197.422V30.2734H198.414V27.7656H199.883V30.2734H202.914V31.5078H199.883V35.4844C199.883 35.9427 199.893 36.3021 199.914 36.5625C199.935 36.8177 200.008 37.0573 200.133 37.2812C200.247 37.4896 200.404 37.6432 200.602 37.7422C200.805 37.8359 201.112 37.8828 201.523 37.8828C201.763 37.8828 202.013 37.849 202.273 37.7812C202.534 37.7083 202.721 37.6484 202.836 37.6016H202.914V38.9219ZM212.133 34.6406C212.133 36.0625 211.768 37.1849 211.039 38.0078C210.31 38.8307 209.333 39.2422 208.109 39.2422C206.875 39.2422 205.893 38.8307 205.164 38.0078C204.44 37.1849 204.078 36.0625 204.078 34.6406C204.078 33.2188 204.44 32.0964 205.164 31.2734C205.893 30.4453 206.875 30.0312 208.109 30.0312C209.333 30.0312 210.31 30.4453 211.039 31.2734C211.768 32.0964 212.133 33.2188 212.133 34.6406ZM210.617 34.6406C210.617 33.5104 210.396 32.6719 209.953 32.125C209.51 31.5729 208.896 31.2969 208.109 31.2969C207.312 31.2969 206.693 31.5729 206.25 32.125C205.812 32.6719 205.594 33.5104 205.594 34.6406C205.594 35.7344 205.815 36.5651 206.258 37.1328C206.701 37.6953 207.318 37.9766 208.109 37.9766C208.891 37.9766 209.503 37.6979 209.945 37.1406C210.393 36.5781 210.617 35.7448 210.617 34.6406ZM219.859 31.875H219.781C219.562 31.8229 219.349 31.7865 219.141 31.7656C218.938 31.7396 218.695 31.7266 218.414 31.7266C217.961 31.7266 217.523 31.8281 217.102 32.0312C216.68 32.2292 216.273 32.487 215.883 32.8047V39H214.414V30.2734H215.883V31.5625C216.466 31.0938 216.979 30.763 217.422 30.5703C217.87 30.3724 218.326 30.2734 218.789 30.2734C219.044 30.2734 219.229 30.2812 219.344 30.2969C219.458 30.3073 219.63 30.3307 219.859 30.3672V31.875ZM228.547 34.7891H222.117C222.117 35.3255 222.198 35.7943 222.359 36.1953C222.521 36.5911 222.742 36.9167 223.023 37.1719C223.294 37.4219 223.615 37.6094 223.984 37.7344C224.359 37.8594 224.771 37.9219 225.219 37.9219C225.812 37.9219 226.409 37.8047 227.008 37.5703C227.612 37.3307 228.042 37.0964 228.297 36.8672H228.375V38.4688C227.88 38.6771 227.375 38.8516 226.859 38.9922C226.344 39.1328 225.802 39.2031 225.234 39.2031C223.786 39.2031 222.656 38.8125 221.844 38.0312C221.031 37.2448 220.625 36.1302 220.625 34.6875C220.625 33.2604 221.013 32.1276 221.789 31.2891C222.57 30.4505 223.596 30.0312 224.867 30.0312C226.044 30.0312 226.951 30.375 227.586 31.0625C228.227 31.75 228.547 32.7266 228.547 33.9922V34.7891ZM227.117 33.6641C227.112 32.8932 226.917 32.2969 226.531 31.875C226.151 31.4531 225.57 31.2422 224.789 31.2422C224.003 31.2422 223.375 31.474 222.906 31.9375C222.443 32.401 222.18 32.9766 222.117 33.6641H227.117ZM236.219 31.875H236.141C235.922 31.8229 235.708 31.7865 235.5 31.7656C235.297 31.7396 235.055 31.7266 234.773 31.7266C234.32 31.7266 233.883 31.8281 233.461 32.0312C233.039 32.2292 232.633 32.487 232.242 32.8047V39H230.773V30.2734H232.242V31.5625C232.826 31.0938 233.339 30.763 233.781 30.5703C234.229 30.3724 234.685 30.2734 235.148 30.2734C235.404 30.2734 235.589 30.2812 235.703 30.2969C235.818 30.3073 235.99 30.3307 236.219 30.3672V31.875ZM239.18 28.8125H237.523V27.2891H239.18V28.8125ZM239.086 39H237.617V30.2734H239.086V39ZM249.289 39H247.82V34.0312C247.82 33.6302 247.797 33.2552 247.75 32.9062C247.703 32.5521 247.617 32.276 247.492 32.0781C247.362 31.8594 247.174 31.6979 246.93 31.5938C246.685 31.4844 246.367 31.4297 245.977 31.4297C245.576 31.4297 245.156 31.5286 244.719 31.7266C244.281 31.9245 243.862 32.1771 243.461 32.4844V39H241.992V30.2734H243.461V31.2422C243.919 30.862 244.393 30.5651 244.883 30.3516C245.372 30.138 245.875 30.0312 246.391 30.0312C247.333 30.0312 248.052 30.3151 248.547 30.8828C249.042 31.4505 249.289 32.2682 249.289 33.3359V39ZM259.195 38.0078C259.195 39.487 258.859 40.5729 258.188 41.2656C257.516 41.9583 256.482 42.3047 255.086 42.3047C254.622 42.3047 254.169 42.2708 253.727 42.2031C253.289 42.1406 252.857 42.0495 252.43 41.9297V40.4297H252.508C252.747 40.5234 253.128 40.638 253.648 40.7734C254.169 40.9141 254.69 40.9844 255.211 40.9844C255.711 40.9844 256.125 40.9245 256.453 40.8047C256.781 40.6849 257.036 40.5182 257.219 40.3047C257.401 40.1016 257.531 39.8568 257.609 39.5703C257.688 39.2839 257.727 38.9635 257.727 38.6094V37.8125C257.284 38.1667 256.859 38.4323 256.453 38.6094C256.052 38.7812 255.539 38.8672 254.914 38.8672C253.872 38.8672 253.044 38.4922 252.43 37.7422C251.82 36.987 251.516 35.9245 251.516 34.5547C251.516 33.8047 251.62 33.1589 251.828 32.6172C252.042 32.0703 252.331 31.599 252.695 31.2031C253.034 30.8333 253.445 30.5469 253.93 30.3438C254.414 30.1354 254.896 30.0312 255.375 30.0312C255.88 30.0312 256.302 30.0833 256.641 30.1875C256.984 30.2865 257.346 30.4401 257.727 30.6484L257.82 30.2734H259.195V38.0078ZM257.727 36.6016V31.8438C257.336 31.6667 256.971 31.5417 256.633 31.4688C256.299 31.3906 255.966 31.3516 255.633 31.3516C254.826 31.3516 254.19 31.6224 253.727 32.1641C253.263 32.7057 253.031 33.4922 253.031 34.5234C253.031 35.5026 253.203 36.2448 253.547 36.75C253.891 37.2552 254.461 37.5078 255.258 37.5078C255.685 37.5078 256.112 37.4271 256.539 37.2656C256.971 37.099 257.367 36.8776 257.727 36.6016Z" fill="#990033" />
        <path fill-rule="evenodd" clip-rule="evenodd" d="M127.095 20.2662C127.095 21.776 128.319 23 129.829 23C131.339 23 132.563 21.776 132.563 20.2662L132.563 8.53583L136.641 12.2653C137.18 12.7579 137.887 13.0019 138.593 12.9975C139.301 13.003 140.01 12.7589 140.55 12.2653L144.628 8.53541V20.2663C144.628 21.7761 145.852 23 147.362 23C148.872 23 150.096 21.7761 150.096 20.2663L150.096 2.73378C150.096 2.45468 150.054 2.18535 149.976 1.93172C149.873 1.54949 149.669 1.18526 149.365 0.873819C148.866 0.33633 148.153 3.15623e-05 147.362 3.15307e-05C146.967 3.15149e-05 146.592 0.0836098 146.254 0.234027C145.94 0.355859 145.646 0.533784 145.39 0.767804L138.595 6.98135L131.801 0.767774C131.546 0.534726 131.253 0.357307 130.941 0.235518C130.601 0.0841423 130.225 -1.57993e-08 129.829 0C129.043 3.13794e-08 128.334 0.331919 127.836 0.863279C127.523 1.18073 127.314 1.55384 127.211 1.94537C127.136 2.195 127.095 2.45967 127.095 2.73375V20.2662Z" fill="#990033" />
        <path fill-rule="evenodd" clip-rule="evenodd" d="M88.5 23.0417C87.1193 23.0417 86 21.9224 86 20.5417V2.54167C86 1.16096 87.1193 0.0416718 88.5 0.0416718C89.8807 0.0416718 91 1.16096 91 2.54167L91 9.48427C91.0539 9.44511 91.109 9.40838 91.1652 9.37406L99.7298 0.809445C100.706 -0.166865 102.289 -0.166863 103.265 0.809448C104.242 1.78576 104.242 3.36867 103.265 4.34498L96.0521 11.5582L103.265 18.7715C104.242 19.7478 104.242 21.3307 103.265 22.307C102.289 23.2833 100.706 23.2833 99.7298 22.307L91 13.5772L91 20.5417C91 21.9224 89.8807 23.0417 88.5 23.0417Z" fill="#990033" />
        <circle cx="114.5" cy="11.5417" r="9" stroke="#990033" stroke-width="5" />
        <circle cx="162.5" cy="11.5417" r="9" stroke="#990033" stroke-width="5" />
    </g>
</svg>