<svg id="Layer_1" data-name="Layer 1" xmlns="http://www.w3.org/2000/svg" viewBox="0 0 25 25"><defs><style>.cls-1,.cls-2,.cls-3{fill:none;stroke:#fff;stroke-miterlimit:10;}.cls-1,.cls-2{stroke-linecap:round;}.cls-1{fill-rule:evenodd;}</style></defs><path class="cls-1" d="M16.72,4H19.2a.64.64,0,0,1,.61.68V21.11a.65.65,0,0,1-.61.68H5.8a.65.65,0,0,1-.61-.68V4.69A.64.64,0,0,1,5.8,4H16.72Z"/><line class="cls-2" x1="4.13" y1="7.09" x2="6.25" y2="7.09"/><line class="cls-2" x1="4.13" y1="9.42" x2="6.25" y2="9.42"/><line class="cls-2" x1="4.13" y1="11.74" x2="6.25" y2="11.74"/><line class="cls-2" x1="4.13" y1="14.06" x2="6.25" y2="14.06"/><line class="cls-2" x1="4.13" y1="16.38" x2="6.25" y2="16.38"/><line class="cls-2" x1="4.13" y1="18.7" x2="6.25" y2="18.7"/><circle class="cls-3" cx="12.5" cy="10.92" r="1.58"/><path class="cls-3" d="M15.09,16.46a.52.52,0,0,0,.52-.61,3.17,3.17,0,0,0-6.22,0,.52.52,0,0,0,.52.61Z"/></svg>