<?xml version="1.0" encoding="utf-8"?>
<!-- Generator: Adobe Illustrator 25.4.1, SVG Export Plug-In . SVG Version: 6.00 Build 0)  -->
<svg version="1.1" id="Layer_1" xmlns="http://www.w3.org/2000/svg" xmlns:xlink="http://www.w3.org/1999/xlink" x="0px" y="0px"
	 viewBox="0 0 353 295" style="enable-background:new 0 0 353 295;" xml:space="preserve">
<style type="text/css">
	.st0{fill:#709B68;}
	.st1{opacity:0.8;fill:#7CC172;}
	.st2{fill:#C92828;}
	.st3{opacity:0.8;fill:#EA4444;}
	.st4{fill:#E5A641;}
	.st5{opacity:0.8;fill:#EDBD66;}
	.st6{fill:#6A77A0;}
	.st7{opacity:0.8;fill:#8B9DC9;}
	.st8{fill:#8D8D8E;}
	.st9{opacity:0.8;fill:#B6B6B7;}
</style>
<g>
	<g>
		<path class="st0" d="M327.5,112h-217C96.4,112,85,100.6,85,86.5v0C85,72.4,96.4,61,110.5,61h217c14.1,0,25.5,11.4,25.5,25.5v0
			C353,100.6,341.6,112,327.5,112z"/>
		<path class="st1" d="M109.5,112h-84C11.4,112,0,100.6,0,86.5v0C0,72.4,11.4,61,25.5,61h84c14.1,0,25.5,11.4,25.5,25.5v0
			C135,100.6,123.6,112,109.5,112z"/>
	</g>
	<path class="st2" d="M327.5,51h-100C213.4,51,202,39.6,202,25.5v0C202,11.4,213.4,0,227.5,0l100,0C341.6,0,353,11.4,353,25.5v0
		C353,39.6,341.6,51,327.5,51z"/>
	<path class="st3" d="M227.5,51h-202C11.4,51,0,39.6,0,25.5v0C0,11.4,11.4,0,25.5,0l202,0C241.6,0,253,11.4,253,25.5v0
		C253,39.6,241.6,51,227.5,51z"/>
	<g>
		<path class="st4" d="M327.5,173h-25c-14.1,0-25.5-11.4-25.5-25.5v0c0-14.1,11.4-25.5,25.5-25.5h25c14.1,0,25.5,11.4,25.5,25.5v0
			C353,161.6,341.6,173,327.5,173z"/>
		<path class="st5" d="M301.5,173h-276C11.4,173,0,161.6,0,147.5v0C0,133.4,11.4,122,25.5,122h276c14.1,0,25.5,11.4,25.5,25.5v0
			C327,161.6,315.6,173,301.5,173z"/>
	</g>
	<g>
		<path class="st6" d="M56.5,234h-31C11.4,234,0,222.6,0,208.5v0C0,194.4,11.4,183,25.5,183h31c14.1,0,25.5,11.4,25.5,25.5v0
			C82,222.6,70.6,234,56.5,234z"/>
		<path class="st7" d="M327.5,234h-272C41.4,234,30,222.6,30,208.5v0c0-14.1,11.4-25.5,25.5-25.5h272c14.1,0,25.5,11.4,25.5,25.5v0
			C353,222.6,341.6,234,327.5,234z"/>
	</g>
	<g>
		<path class="st8" d="M189.5,295h-164C11.4,295,0,283.6,0,269.5v0C0,255.4,11.4,244,25.5,244h164c14.1,0,25.5,11.4,25.5,25.5v0
			C215,283.6,203.6,295,189.5,295z"/>
		<path class="st9" d="M327.5,295h-139c-14.1,0-25.5-11.4-25.5-25.5v0c0-14.1,11.4-25.5,25.5-25.5h139c14.1,0,25.5,11.4,25.5,25.5v0
			C353,283.6,341.6,295,327.5,295z"/>
	</g>
</g>
</svg>
