<svg width="50" height="34" viewBox="0 0 50 34" fill="none" xmlns="http://www.w3.org/2000/svg">
<path d="M19.5195 8.82617H23.288V25.6283H22.1899L22.2167 11.8671L20.2581 11.5803L16.0835 25.6283H13.8916L9.85184 11.5886L7.89086 11.8582L7.79456 25.6283H6.6875V8.82617H10.5105L13.99 20.6434L14.9316 23.8411L15.9057 20.6532L19.5195 8.82617Z" fill="#4A4848" stroke="#4A4848" stroke-width="2"/>
<path d="M1 1.8623H49V32.3831H1V1.8623Z" stroke="#4A4848" stroke-width="2"/>
<path d="M31.9747 9.72872H31.9746H30.9746V10.7287V23.6055V24.6055H31.9746H37.5651C38.695 24.6055 39.8971 24.0057 40.7857 22.745C41.667 21.4947 42.2338 19.6168 42.2495 16.987C42.2651 14.3593 41.7111 12.5444 40.794 11.3652C39.8569 10.1604 38.6244 9.72872 37.5651 9.72872H37.5559H37.5467H37.5374H37.5281H37.5186H37.5092H37.4997H37.4901H37.4805H37.4708H37.461H37.4513H37.4414H37.4315H37.4216H37.4116H37.4015H37.3914H37.3813H37.3711H37.3608H37.3505H37.3402H37.3298H37.3193H37.3088H37.2982H37.2876H37.277H37.2663H37.2556H37.2448H37.2339H37.223H37.2121H37.2011H37.1901H37.179H37.1679H37.1568H37.1456H37.1343H37.123H37.1117H37.1003H37.0889H37.0774H37.0659H37.0543H37.0427H37.0311H37.0194H37.0077H36.9959H36.9841H36.9723H36.9604H36.9485H36.9365H36.9245H36.9125H36.9004H36.8883H36.8761H36.864H36.8517H36.8395H36.8272H36.8148H36.8024H36.79H36.7776H36.7651H36.7526H36.74H36.7274H36.7148H36.7021H36.6894H36.6767H36.664H36.6512H36.6383H36.6255H36.6126H36.5997H36.5867H36.5737H36.5607H36.5477H36.5346H36.5215H36.5084H36.4952H36.482H36.4688H36.4555H36.4423H36.429H36.4156H36.4023H36.3889H36.3755H36.362H36.3485H36.335H36.3215H36.308H36.2944H36.2808H36.2672H36.2536H36.2399H36.2262H36.2125H36.1987H36.185H36.1712H36.1574H36.1436H36.1297H36.1158H36.102H36.088H36.0741H36.0602H36.0462H36.0322H36.0182H36.0042H35.9901H35.976H35.962H35.9479H35.9337H35.9196H35.9054H35.8913H35.8771H35.8629H35.8487H35.8344H35.8202H35.8059H35.7916H35.7773H35.763H35.7487H35.7344H35.72H35.7057H35.6913H35.6769H35.6625H35.6481H35.6337H35.6193H35.6048H35.5904H35.5759H35.5614H35.5469H35.5324H35.5179H35.5034H35.4889H35.4744H35.4598H35.4453H35.4308H35.4162H35.4016H35.3871H35.3725H35.3579H35.3433H35.3287H35.3141H35.2995H35.2849H35.2703H35.2557H35.2411H35.2264H35.2118H35.1972H35.1826H35.1679H35.1533H35.1386H35.124H35.1094H35.0947H35.0801H35.0655H35.0508H35.0362H35.0215H35.0069H34.9923H34.9776H34.963H34.9484H34.9337H34.9191H34.9045H34.8899H34.8753H34.8606H34.846H34.8314H34.8168H34.8022H34.7877H34.7731H34.7585H34.7439H34.7294H34.7148H34.7003H34.6857H34.6712H34.6567H34.6421H34.6276H34.6131H34.5987H34.5842H34.5697H34.5552H34.5408H34.5263H34.5119H34.4975H34.4831H34.4687H34.4543H34.4399H34.4256H34.4112H34.3969H34.3826H34.3683H34.354H34.3397H34.3255H34.3112H34.297H34.2828H34.2686H34.2544H34.2402H34.2261H34.2119H34.1978H34.1837H34.1697H34.1556H34.1416H34.1275H34.1135H34.0995H34.0856H34.0716H34.0577H34.0438H34.0299H34.016H34.0022H33.9884H33.9746H33.9608H33.947H33.9333H33.9196H33.9059H33.8923H33.8786H33.865H33.8514H33.8379H33.8243H33.8108H33.7973H33.7839H33.7704H33.757H33.7436H33.7303H33.717H33.7037H33.6904H33.6771H33.6639H33.6507H33.6376H33.6245H33.6114H33.5983H33.5853H33.5723H33.5593H33.5463H33.5334H33.5206H33.5077H33.4949H33.4821H33.4694H33.4566H33.444H33.4313H33.4187H33.4061H33.3936H33.3811H33.3686H33.3561H33.3437H33.3314H33.319H33.3067H33.2945H33.2823H33.2701H33.2579H33.2458H33.2338H33.2217H33.2097H33.1978H33.1859H33.174H33.1622H33.1504H33.1386H33.1269H33.1153H33.1036H33.0921H33.0805H33.069H33.0576H33.0461H33.0348H33.0235H33.0122H33.0009H32.9897H32.9786H32.9675H32.9564H32.9454H32.9345H32.9235H32.9127H32.9018H32.8911H32.8803H32.8696H32.859H32.8484H32.8379H32.8274H32.817H32.8066H32.7962H32.7859H32.7757H32.7655H32.7554H32.7453H32.7353H32.7253H32.7153H32.7055H32.6956H32.6859H32.6761H32.6665H32.6569H32.6473H32.6378H32.6283H32.619H32.6096H32.6003H32.5911H32.5819H32.5728H32.5638H32.5548H32.5458H32.5369H32.5281H32.5193H32.5106H32.502H32.4934H32.4848H32.4764H32.468H32.4596H32.4513H32.4431H32.4349H32.4268H32.4187H32.4108H32.4028H32.395H32.3872H32.3794H32.3718H32.3642H32.3566H32.3491H32.3417H32.3344H32.3271H32.3199H32.3127H32.3056H32.2986H32.2916H32.2848H32.2779H32.2712H32.2645H32.2579H32.2513H32.2449H32.2384H32.2321H32.2258H32.2196H32.2135H32.2074H32.2014H32.1955H32.1897H32.1839H32.1782H32.1726H32.167H32.1615H32.1561H32.1507H32.1455H32.1403H32.1352H32.1301H32.1251H32.1202H32.1154H32.1107H32.106H32.1014H32.0969H32.0925H32.0881H32.0838H32.0796H32.0755H32.0714H32.0675H32.0636H32.0597H32.056H32.0524H32.0488H32.0453H32.0419H32.0385H32.0353H32.0321H32.029H32.026H32.0231H32.0202H32.0175H32.0148H32.0122H32.0097H32.0073H32.0049H32.0027H32.0005H31.9984H31.9964H31.9945H31.9927H31.9909H31.9893H31.9877H31.9862H31.9848H31.9835H31.9823H31.9812H31.9802H31.9792H31.9783H31.9776H31.9769H31.9763H31.9758H31.9754H31.9751H31.9748H31.9747ZM29.457 25.7193V8.63037H37.3791C38.7056 8.63037 43.1853 10.1044 43.4883 17.0247C43.6407 20.5073 42.5272 22.6264 41.2386 23.894C39.9285 25.1829 38.3688 25.6596 37.5322 25.7193H29.457Z" fill="#4A4848" stroke="#4A4848" stroke-width="2"/>
</svg>
